<?xml version="1.0" encoding="UTF-8" standalone="no"?>
<!DOCTYPE svg PUBLIC "-//W3C//DTD SVG 1.1//EN"
 "http://www.w3.org/Graphics/SVG/1.1/DTD/svg11.dtd">
<!-- Generated by graphviz version 2.47.0 (20210316.0004)
 -->
<!-- Title: dependencies Pages: 1 -->
<svg width="504pt" height="284pt"
 viewBox="0.00 0.00 504.00 284.00" xmlns="http://www.w3.org/2000/svg" xmlns:xlink="http://www.w3.org/1999/xlink">
<g id="graph0" class="graph" transform="scale(1 1) rotate(0) translate(4 280)">
<title>dependencies</title>
<polygon fill="white" stroke="transparent" points="-4,4 -4,-280 500,-280 500,4 -4,4"/>
<text text-anchor="start" x="227.01" y="-42.4" font-family="Times-12" font-weight="bold" font-size="14.00">Legend</text>
<polygon fill="#ffffb3" stroke="transparent" points="14,-10 14,-30 34,-30 34,-10 14,-10"/>
<text text-anchor="start" x="37.63" y="-15.4" font-family="Times-12" font-size="14.00"> &#160;Declarations</text>
<polygon fill="#8dd3c7" stroke="transparent" points="127,-10 127,-30 147,-30 147,-10 127,-10"/>
<text text-anchor="start" x="150.73" y="-15.4" font-family="Times-12" font-size="14.00"> &#160;Module</text>
<polygon fill="#80b1d3" stroke="transparent" points="213,-10 213,-30 233,-30 233,-10 213,-10"/>
<text text-anchor="start" x="236.78" y="-15.4" font-family="Times-12" font-size="14.00"> &#160;Bootstrap</text>
<polygon fill="#fdb462" stroke="transparent" points="310,-10 310,-30 330,-30 330,-10 310,-10"/>
<text text-anchor="start" x="333.67" y="-15.4" font-family="Times-12" font-size="14.00"> &#160;Providers</text>
<polygon fill="#fb8072" stroke="transparent" points="406,-10 406,-30 426,-30 426,-10 406,-10"/>
<text text-anchor="start" x="429.73" y="-15.4" font-family="Times-12" font-size="14.00"> &#160;Exports</text>
<g id="clust1" class="cluster">
<title>cluster_CommonModule</title>
<polygon fill="none" stroke="black" stroke-dasharray="1,5" points="120,-70 120,-268 376,-268 376,-70 120,-70"/>
</g>
<g id="clust3" class="cluster">
<title>cluster_CommonModule_imports</title>
<polygon fill="none" stroke="black" points="132,-78 132,-130 364,-130 364,-78 132,-78"/>
</g>
<g id="clust4" class="cluster">
<title>cluster_CommonModule_exports</title>
<polygon fill="none" stroke="black" points="128,-208 128,-260 368,-260 368,-208 128,-208"/>
</g>
<!-- ConfigModule -->
<g id="node1" class="node">
<title>ConfigModule</title>
<polygon fill="#8dd3c7" stroke="black" points="356.44,-122 353.44,-126 332.44,-126 329.44,-122 257.56,-122 257.56,-86 356.44,-86 356.44,-122"/>
<text text-anchor="middle" x="307" y="-99.8" font-family="Times,serif" font-size="14.00">ConfigModule</text>
</g>
<!-- CommonModule -->
<g id="node3" class="node">
<title>CommonModule</title>
<polygon fill="#8dd3c7" stroke="black" points="246.67,-187 243.67,-191 222.67,-191 219.67,-187 135.33,-187 135.33,-151 246.67,-151 246.67,-187"/>
<text text-anchor="middle" x="191" y="-164.8" font-family="Times,serif" font-size="14.00">CommonModule</text>
</g>
<!-- ConfigModule&#45;&gt;CommonModule -->
<g id="edge1" class="edge">
<title>ConfigModule&#45;&gt;CommonModule</title>
<path fill="none" stroke="black" d="M307.12,-122.11C307.12,-141.34 307.12,-169 307.12,-169 307.12,-169 256.68,-169 256.68,-169"/>
<polygon fill="black" stroke="black" points="256.68,-165.5 246.68,-169 256.68,-172.5 256.68,-165.5"/>
</g>
<!-- MongoModule -->
<g id="node2" class="node">
<title>MongoModule</title>
<polygon fill="#8dd3c7" stroke="black" points="239.99,-122 236.99,-126 215.99,-126 212.99,-122 140.01,-122 140.01,-86 239.99,-86 239.99,-122"/>
<text text-anchor="middle" x="190" y="-99.8" font-family="Times,serif" font-size="14.00">MongoModule</text>
</g>
<!-- MongoModule&#45;&gt;CommonModule -->
<g id="edge2" class="edge">
<title>MongoModule&#45;&gt;CommonModule</title>
<path fill="none" stroke="black" d="M190,-122.11C190,-122.11 190,-140.99 190,-140.99"/>
<polygon fill="black" stroke="black" points="186.5,-140.99 190,-150.99 193.5,-140.99 186.5,-140.99"/>
</g>
<!-- ConfigModule  -->
<g id="node4" class="node">
<title>ConfigModule </title>
<polygon fill="#fb8072" stroke="black" points="359.94,-252 258.06,-252 258.06,-216 359.94,-216 359.94,-252"/>
<text text-anchor="middle" x="309" y="-229.8" font-family="Times,serif" font-size="14.00">ConfigModule </text>
</g>
<!-- CommonModule&#45;&gt;ConfigModule  -->
<g id="edge3" class="edge">
<title>CommonModule&#45;&gt;ConfigModule </title>
<path fill="none" stroke="black" stroke-dasharray="5,2" d="M243.29,-187.11C243.29,-206.34 243.29,-234 243.29,-234 243.29,-234 247.87,-234 247.87,-234"/>
<polygon fill="black" stroke="black" points="247.87,-237.5 257.87,-234 247.87,-230.5 247.87,-237.5"/>
</g>
<!-- MongoModule  -->
<g id="node5" class="node">
<title>MongoModule </title>
<polygon fill="#fb8072" stroke="black" points="240,-252 136,-252 136,-216 240,-216 240,-252"/>
<text text-anchor="middle" x="188" y="-229.8" font-family="Times,serif" font-size="14.00">MongoModule </text>
</g>
<!-- CommonModule&#45;&gt;MongoModule  -->
<g id="edge4" class="edge">
<title>CommonModule&#45;&gt;MongoModule </title>
<path fill="none" stroke="black" stroke-dasharray="5,2" d="M188,-187.11C188,-187.11 188,-205.99 188,-205.99"/>
<polygon fill="black" stroke="black" points="184.5,-205.99 188,-215.99 191.5,-205.99 184.5,-205.99"/>
</g>
</g>
</svg>
