<?xml version="1.0" encoding="UTF-8" standalone="no"?>
<!DOCTYPE svg PUBLIC "-//W3C//DTD SVG 1.1//EN"
 "http://www.w3.org/Graphics/SVG/1.1/DTD/svg11.dtd">
<!-- Generated by graphviz version 2.47.0 (20210316.0004)
 -->
<!-- Title: dependencies Pages: 1 -->
<svg width="932pt" height="298pt"
 viewBox="0.00 0.00 932.00 298.00" xmlns="http://www.w3.org/2000/svg" xmlns:xlink="http://www.w3.org/1999/xlink">
<g id="graph0" class="graph" transform="scale(1 1) rotate(0) translate(4 294)">
<title>dependencies</title>
<polygon fill="white" stroke="transparent" points="-4,4 -4,-294 928,-294 928,4 -4,4"/>
<text text-anchor="start" x="441.01" y="-42.4" font-family="Times-12" font-weight="bold" font-size="14.00">Legend</text>
<polygon fill="#ffffb3" stroke="transparent" points="228,-10 228,-30 248,-30 248,-10 228,-10"/>
<text text-anchor="start" x="251.63" y="-15.4" font-family="Times-12" font-size="14.00"> &#160;Declarations</text>
<polygon fill="#8dd3c7" stroke="transparent" points="341,-10 341,-30 361,-30 361,-10 341,-10"/>
<text text-anchor="start" x="364.73" y="-15.4" font-family="Times-12" font-size="14.00"> &#160;Module</text>
<polygon fill="#80b1d3" stroke="transparent" points="427,-10 427,-30 447,-30 447,-10 427,-10"/>
<text text-anchor="start" x="450.78" y="-15.4" font-family="Times-12" font-size="14.00"> &#160;Bootstrap</text>
<polygon fill="#fdb462" stroke="transparent" points="524,-10 524,-30 544,-30 544,-10 524,-10"/>
<text text-anchor="start" x="547.67" y="-15.4" font-family="Times-12" font-size="14.00"> &#160;Providers</text>
<polygon fill="#fb8072" stroke="transparent" points="620,-10 620,-30 640,-30 640,-10 620,-10"/>
<text text-anchor="start" x="643.73" y="-15.4" font-family="Times-12" font-size="14.00"> &#160;Exports</text>
<g id="clust1" class="cluster">
<title>cluster_AppModule</title>
<polygon fill="none" stroke="black" stroke-dasharray="1,5" points="8,-146 8,-274 412,-274 412,-146 8,-146"/>
</g>
<g id="clust3" class="cluster">
<title>cluster_AppModule_imports</title>
<polygon fill="none" stroke="black" points="154,-154 154,-206 404,-206 404,-154 154,-154"/>
</g>
<g id="clust6" class="cluster">
<title>cluster_AppModule_providers</title>
<polygon fill="none" stroke="black" points="16,-154 16,-206 146,-206 146,-154 16,-154"/>
</g>
<g id="clust7" class="cluster">
<title>cluster_CommonModule</title>
<polygon fill="none" stroke="black" stroke-dasharray="1,5" points="420,-214 420,-282 916,-282 916,-214 420,-214"/>
</g>
<g id="clust9" class="cluster">
<title>cluster_CommonModule_imports</title>
<polygon fill="none" stroke="black" points="676,-222 676,-274 908,-274 908,-222 676,-222"/>
</g>
<g id="clust10" class="cluster">
<title>cluster_CommonModule_exports</title>
<polygon fill="none" stroke="black" points="428,-222 428,-274 668,-274 668,-222 428,-222"/>
</g>
<g id="clust25" class="cluster">
<title>cluster_PatientsModule</title>
<polygon fill="none" stroke="black" stroke-dasharray="1,5" points="127,-70 127,-138 301,-138 301,-70 127,-70"/>
</g>
<g id="clust30" class="cluster">
<title>cluster_PatientsModule_providers</title>
<polygon fill="none" stroke="black" points="135,-78 135,-130 293,-130 293,-78 135,-78"/>
</g>
<!-- CommonModule -->
<g id="node1" class="node">
<title>CommonModule</title>
<polygon fill="#8dd3c7" stroke="black" points="395.67,-198 392.67,-202 371.67,-202 368.67,-198 284.33,-198 284.33,-162 395.67,-162 395.67,-198"/>
<text text-anchor="middle" x="340" y="-175.8" font-family="Times,serif" font-size="14.00">CommonModule</text>
</g>
<!-- AppModule -->
<g id="node3" class="node">
<title>AppModule</title>
<polygon fill="#8dd3c7" stroke="black" points="255.66,-266 252.66,-270 231.66,-270 228.66,-266 172.34,-266 172.34,-230 255.66,-230 255.66,-266"/>
<text text-anchor="middle" x="214" y="-243.8" font-family="Times,serif" font-size="14.00">AppModule</text>
</g>
<!-- CommonModule&#45;&gt;AppModule -->
<g id="edge1" class="edge">
<title>CommonModule&#45;&gt;AppModule</title>
<path fill="none" stroke="black" d="M340,-198.22C340,-218.37 340,-248 340,-248 340,-248 265.96,-248 265.96,-248"/>
<polygon fill="black" stroke="black" points="265.96,-244.5 255.96,-248 265.96,-251.5 265.96,-244.5"/>
</g>
<!-- ConfigModule  -->
<g id="node7" class="node">
<title>ConfigModule </title>
<polygon fill="#fb8072" stroke="black" points="659.94,-266 558.06,-266 558.06,-230 659.94,-230 659.94,-266"/>
<text text-anchor="middle" x="609" y="-243.8" font-family="Times,serif" font-size="14.00">ConfigModule </text>
</g>
<!-- CommonModule&#45;&gt;ConfigModule  -->
<g id="edge6" class="edge">
<title>CommonModule&#45;&gt;ConfigModule </title>
<path fill="none" stroke="black" stroke-dasharray="5,2" d="M395.74,-184C474.53,-184 609,-184 609,-184 609,-184 609,-219.83 609,-219.83"/>
<polygon fill="black" stroke="black" points="605.5,-219.83 609,-229.83 612.5,-219.83 605.5,-219.83"/>
</g>
<!-- MongoModule  -->
<g id="node8" class="node">
<title>MongoModule </title>
<polygon fill="#fb8072" stroke="black" points="540,-266 436,-266 436,-230 540,-230 540,-266"/>
<text text-anchor="middle" x="488" y="-243.8" font-family="Times,serif" font-size="14.00">MongoModule </text>
</g>
<!-- CommonModule&#45;&gt;MongoModule  -->
<g id="edge7" class="edge">
<title>CommonModule&#45;&gt;MongoModule </title>
<path fill="none" stroke="black" stroke-dasharray="5,2" d="M395.95,-191C437.86,-191 488,-191 488,-191 488,-191 488,-219.96 488,-219.96"/>
<polygon fill="black" stroke="black" points="484.5,-219.96 488,-229.96 491.5,-219.96 484.5,-219.96"/>
</g>
<!-- PatientsModule -->
<g id="node2" class="node">
<title>PatientsModule</title>
<polygon fill="#8dd3c7" stroke="black" points="265.88,-198 262.88,-202 241.88,-202 238.88,-198 162.12,-198 162.12,-162 265.88,-162 265.88,-198"/>
<text text-anchor="middle" x="214" y="-175.8" font-family="Times,serif" font-size="14.00">PatientsModule</text>
</g>
<!-- PatientsModule&#45;&gt;AppModule -->
<g id="edge2" class="edge">
<title>PatientsModule&#45;&gt;AppModule</title>
<path fill="none" stroke="black" d="M214,-198.22C214,-198.22 214,-219.73 214,-219.73"/>
<polygon fill="black" stroke="black" points="210.5,-219.73 214,-229.73 217.5,-219.73 210.5,-219.73"/>
</g>
<!-- AppService -->
<g id="node4" class="node">
<title>AppService</title>
<ellipse fill="#fdb462" stroke="black" cx="81" cy="-180" rx="56.74" ry="18"/>
<text text-anchor="middle" x="81" y="-175.8" font-family="Times,serif" font-size="14.00">AppService</text>
</g>
<!-- AppService&#45;&gt;AppModule -->
<g id="edge3" class="edge">
<title>AppService&#45;&gt;AppModule</title>
<path fill="none" stroke="black" d="M81,-198.22C81,-218.37 81,-248 81,-248 81,-248 162.28,-248 162.28,-248"/>
<polygon fill="black" stroke="black" points="162.28,-251.5 172.28,-248 162.28,-244.5 162.28,-251.5"/>
</g>
<!-- ConfigModule -->
<g id="node5" class="node">
<title>ConfigModule</title>
<polygon fill="#8dd3c7" stroke="black" points="900.44,-266 897.44,-270 876.44,-270 873.44,-266 801.56,-266 801.56,-230 900.44,-230 900.44,-266"/>
<text text-anchor="middle" x="851" y="-243.8" font-family="Times,serif" font-size="14.00">ConfigModule</text>
</g>
<!-- ConfigModule&#45;&gt;CommonModule -->
<g id="edge4" class="edge">
<title>ConfigModule&#45;&gt;CommonModule</title>
<path fill="none" stroke="black" d="M851,-229.91C851,-206.87 851,-170 851,-170 851,-170 406.15,-170 406.15,-170"/>
<polygon fill="black" stroke="black" points="406.15,-166.5 396.15,-170 406.15,-173.5 406.15,-166.5"/>
</g>
<!-- MongoModule -->
<g id="node6" class="node">
<title>MongoModule</title>
<polygon fill="#8dd3c7" stroke="black" points="783.99,-266 780.99,-270 759.99,-270 756.99,-266 684.01,-266 684.01,-230 783.99,-230 783.99,-266"/>
<text text-anchor="middle" x="734" y="-243.8" font-family="Times,serif" font-size="14.00">MongoModule</text>
</g>
<!-- MongoModule&#45;&gt;CommonModule -->
<g id="edge5" class="edge">
<title>MongoModule&#45;&gt;CommonModule</title>
<path fill="none" stroke="black" d="M734,-229.72C734,-208.68 734,-177 734,-177 734,-177 406.03,-177 406.03,-177"/>
<polygon fill="black" stroke="black" points="406.03,-173.5 396.03,-177 406.03,-180.5 406.03,-173.5"/>
</g>
<!-- PatientsService -->
<g id="node9" class="node">
<title>PatientsService</title>
<ellipse fill="#fdb462" stroke="black" cx="214" cy="-104" rx="70.64" ry="18"/>
<text text-anchor="middle" x="214" y="-99.8" font-family="Times,serif" font-size="14.00">PatientsService</text>
</g>
<!-- PatientsService&#45;&gt;PatientsModule -->
<g id="edge8" class="edge">
<title>PatientsService&#45;&gt;PatientsModule</title>
<path fill="none" stroke="black" d="M214,-122.01C214,-122.01 214,-151.85 214,-151.85"/>
<polygon fill="black" stroke="black" points="210.5,-151.85 214,-161.85 217.5,-151.85 210.5,-151.85"/>
</g>
</g>
</svg>
